<svg version="1.1" id="Layer_1" xmlns="http://www.w3.org/2000/svg" x="0" y="0" viewBox="0 0 24 24" xml:space="preserve" enable-background="new 0 0 24 24" width="24" height="24"><title>accessible transportation</title><g class="nc-icon-wrapper" fill="#232323"><g transform="translate(.5 .5)"><path class="st3" d="M22.5 13.48H.5" fill="none" stroke="#232323" stroke-width="1.5" stroke-linecap="round" stroke-linejoin="round" stroke-miterlimit="10"/><path class="st3" d="M7.1 19.2v3.3H2.7v-3.3" fill="none" stroke="#232323" stroke-width="1.5" stroke-linecap="round" stroke-linejoin="round" stroke-miterlimit="10"/><path class="st3" d="M20.3 19.2v3.3h-4.4v-3.3" fill="none" stroke="#232323" stroke-width="1.5" stroke-linecap="round" stroke-linejoin="round" stroke-miterlimit="10"/><path class="st3" d="M22.5 2.7v16.5H.5V2.7C.5 1.48 1.48.5 2.7.5h17.6c1.22 0 2.2.98 2.2 2.2z" fill="none" stroke="#232323" stroke-width="1.5" stroke-linecap="round" stroke-linejoin="round" stroke-miterlimit="10"/><path class="st3" d="M4.9 16.35h2.2" fill="none" stroke="#232323" stroke-width="1.5" stroke-linecap="round" stroke-linejoin="round" stroke-miterlimit="10"/><path class="st3" d="M15.9 16.35h2.2" fill="none" stroke="#232323" stroke-width="1.5" stroke-linecap="round" stroke-linejoin="round" stroke-miterlimit="10"/></g><g transform="translate(.5 .5)"><circle class="st4" cx="10.77" cy="3.49" r="1.14" style="" fill="#232323"/><path class="st3" d="M9.22 7.72c-.82.68-.95 1.9-.27 2.73.68.83 1.9.95 2.73.28l.06-.06" fill="none" stroke="#232323" stroke-width="1.5" stroke-linecap="round" stroke-linejoin="round" stroke-miterlimit="10"/><path class="st3" d="M14.66 10.76l-.39-1.58a.481.481 0 0 0-.47-.37h-2.13c-.24 0-.44-.17-.48-.41l-.42-2.51h2.92" fill="none" stroke="#232323" stroke-width="1.5" stroke-linecap="round" stroke-linejoin="round" stroke-miterlimit="10"/></g></g></svg>