<svg version="1.1" id="Layer_1" xmlns="http://www.w3.org/2000/svg" x="0" y="0" viewBox="0 0 24 24" xml:space="preserve" enable-background="new 0 0 24 24" width="24" height="24"><title>accessible bathroom</title><g class="nc-icon-wrapper" fill="#232323"><g transform="translate(.5 .5)"><path class="st0" d="M3.9 6c-1 0-1.8-.8-1.8-1.8s.8-1.8 1.8-1.8 1.8.8 1.8 1.8S4.9 6 3.9 6z" fill="none" stroke="#232323" stroke-width="1.5" stroke-linecap="round" stroke-linejoin="round" stroke-miterlimit="10"/><path class="st0" d="M5.7 20.7H2.1v-4.6H.2v-5.5c0-1 .8-1.8 1.8-1.8h3.7c1 0 1.8.8 1.8 1.8v5.5H5.7v4.6z" fill="none" stroke="#232323" stroke-width="1.5" stroke-linecap="round" stroke-linejoin="round" stroke-miterlimit="10"/></g><g transform="translate(.5 .5)"><path class="st0" d="M14 15.1c-1.3 1.1-1.5 3.1-.4 4.4s3.1 1.5 4.4.5l.1-.1" fill="none" stroke="#232323" stroke-width="1.5" stroke-linecap="round" stroke-linejoin="round" stroke-miterlimit="10"/><path class="st0" d="M22.7 20l-.6-2.5c-.1-.4-.4-.6-.8-.6h-3.4c-.4 0-.7-.3-.8-.7l-.7-4h4.7" fill="none" stroke="#232323" stroke-width="1.5" stroke-linecap="round" stroke-linejoin="round" stroke-miterlimit="10"/></g><path class="st0" d="M17 10.7c-1 0-1.8-.8-1.8-1.8C15.1 7.8 16 7 17 7s1.8.8 1.8 1.8c0 1.1-.8 1.9-1.8 1.9z" fill="none" stroke="#232323" stroke-width="1.5" stroke-linecap="round" stroke-linejoin="round" stroke-miterlimit="10"/><path class="st0" d="M10.9 2.8v18.4" fill="none" stroke="#232323" stroke-width="1.5" stroke-linecap="round" stroke-linejoin="round" stroke-miterlimit="10"/></g></svg>