<svg version="1.1" id="Layer_1" xmlns="http://www.w3.org/2000/svg" x="0" y="0" viewBox="0 0 24 24" xml:space="preserve" enable-background="new 0 0 24 24" width="24" height="24"><title>assistance</title><g class="nc-icon-wrapper" fill="#232323"><g transform="translate(.5 .5)"><path class="st0" d="M20.34 16.5h-6" fill="none" stroke="#232323" stroke-width="1.5" stroke-linecap="round" stroke-linejoin="round" stroke-miterlimit="10"/><path class="st0" d="M20.34 16.5v6" fill="none" stroke="#232323" stroke-width="1.5" stroke-linecap="round" stroke-linejoin="round" stroke-miterlimit="10"/><path class="st0" d="M14.34 22.5v-6" fill="none" stroke="#232323" stroke-width="1.5" stroke-linecap="round" stroke-linejoin="round" stroke-miterlimit="10"/><circle class="st0" cx="17.34" cy="2.5" r="2" fill="none" stroke="#232323" stroke-width="1.5" stroke-linecap="round" stroke-linejoin="round" stroke-miterlimit="10"/><path class="st0" d="M14.34 7.5v9h6v-9" fill="none" stroke="#232323" stroke-width="1.5" stroke-linecap="round" stroke-linejoin="round" stroke-miterlimit="10"/></g><g transform="translate(.5 .5)"><circle class="st0" cx="9.6" cy="5.83" r="2" fill="none" stroke="#232323" stroke-width="1.5" stroke-linecap="round" stroke-linejoin="round" stroke-miterlimit="10"/><path class="st1" d="M13.43 13.3h-2.67L7.73 8.43a2.084 2.084 0 0 0-2.91-.49c-.16.12-.31.26-.44.43l-3.4 4.42c-.35.46-.49 1.04-.38 1.61l.83 4.1v4" fill="none" stroke="#232323" stroke-width="1.5" stroke-linecap="round" stroke-linejoin="round"/></g><path class="st0" d="M1.93 20.45h7.7L7.17 8.15" fill="none" stroke="#232323" stroke-width="1.5" stroke-linecap="round" stroke-linejoin="round" stroke-miterlimit="10"/><path class="st1" d="M7.01 20.45V23" fill="none" stroke="#232323" stroke-width="1.5" stroke-linecap="round" stroke-linejoin="round"/><path class="st2" d="M13.93 13.8h3.93c2.54 0 5.06-2.07 5.06-4.6l.01-.32c0-.49-.39-.88-.88-.88H14.52a2 2 0 0 0-2 2v3.8" fill="none" stroke="#232323" stroke-width="1.5" stroke-miterlimit="10"/></g></svg>