<?xml version="1.0" encoding="utf-8"?>
<!-- Generator: Adobe Illustrator 24.2.0, SVG Export Plug-In . SVG Version: 6.00 Build 0)  -->
<svg version="1.1" id="Layer_1" xmlns="http://www.w3.org/2000/svg" xmlns:xlink="http://www.w3.org/1999/xlink" x="0px" y="0px" viewBox="0 0 24 24" style="enable-background:new 0 0 24 24;" xml:space="preserve">

	<g>
		<g transform="translate(0.5 0.5)">
			<path fill="none" stroke="#232323" stroke-width="1.5" stroke-linecap="round" stroke-linejoin="round" stroke-miterlimit="10" d="M18.22,8.84c0.2-0.41,0.31-0.85,0.31-1.31c0-1.64-1.33-2.98-2.98-2.98s-2.98,1.33-2.98,2.98" />
			<path fill="none" stroke="#232323" stroke-width="1.5" stroke-linecap="round" stroke-linejoin="round" stroke-miterlimit="10" d="M11.12,21.55c0.69,0.56,1.56,0.86,2.45,0.87h-0.02c2.19,0,3.53-1.82,3.97-3.97
			c1.01-4.96,4.98-4.96,4.98-10.92c0-3.84-3.11-6.95-6.95-6.95S8.61,3.69,8.61,7.53" />
		</g>
		<g transform="translate(0.5 0.5)">
			<path fill="none" stroke="#232323" stroke-width="1.5" stroke-linecap="round" stroke-linejoin="round" stroke-miterlimit="10" d="M3.14,17.23c1.58-1.58,1.58-4.03,0-5.61" />
			<path fill="none" stroke="#232323" stroke-width="1.5" stroke-linecap="round" stroke-linejoin="round" stroke-miterlimit="10" d="M5.43,19.52c2.77-2.77,2.77-7.27,0-10.04" />
			<path fill="none" stroke="#232323" stroke-width="1.5" stroke-linecap="round" stroke-linejoin="round" stroke-miterlimit="10" d="M0.5,16.04c0.89-0.89,0.89-2.27,0-3.16" />
		</g>
	</g>
</svg>
