<svg xmlns="http://www.w3.org/2000/svg" viewBox="0 0 24 24" width="24" height="24"><title>baby</title><g class="nc-icon-wrapper" transform="translate(0.5, 0.5)" fill="#232323"><circle data-stroke="none" fill="#232323" cx="8.5" cy="14.5" r="1.5" stroke-linejoin="round" stroke-linecap="round"/> <circle data-stroke="none" fill="#232323" cx="15.5" cy="14.5" r="1.5" stroke-linejoin="round" stroke-linecap="round"/> <path fill="none" stroke="#232323" stroke-width="1.5" stroke-linecap="round" stroke-miterlimit="10" d="M23,13 c0-1.487-1.085-2.713-2.505-2.95C19.273,6.53,15.936,4,12,4s-7.273,2.53-8.495,6.05C2.085,10.287,1,11.513,1,13 s1.085,2.713,2.505,2.95C4.727,19.47,8.064,22,12,22s7.273-2.53,8.495-6.05C21.915,15.713,23,14.487,23,13z" stroke-linejoin="round"/> <path data-cap="butt" data-color="color-2" fill="none" stroke="#232323" stroke-width="1.5" stroke-miterlimit="10" d="M12,7 c-0.25-3.583,1.667-5.792,5-6" stroke-linejoin="round" stroke-linecap="round"/></g></svg>