<?xml version="1.0" encoding="utf-8"?>
<svg version="1.1" id="Layer_1" xmlns="http://www.w3.org/2000/svg" xmlns:xlink="http://www.w3.org/1999/xlink" x="0px" y="0px" viewBox="0 0 24 24" style="enable-background:new 0 0 24 24;" xml:space="preserve">
	<g>
		<g transform="translate(0.5 0.5)">
			<circle fill="none" stroke="#232323" stroke-width="1.5" stroke-linecap="round" stroke-linejoin="round" cx="9.63" cy="2.6" r="2.1" />
			<path fill="none" stroke="#232323" stroke-width="1.5" stroke-linecap="round" stroke-linejoin="round" stroke-miterlimit="10" d="M13.82,22.5l-0.97-4.85c-0.05-0.25-0.19-0.47-0.4-0.63l-3.03-2.28c-0.53-0.4-0.84-1.02-0.84-1.68V7.86" />
			<path fill="none" stroke="#232323" stroke-width="1.5" stroke-linecap="round" stroke-linejoin="round" stroke-miterlimit="10" d="M8.83,7.83h2.34c0.35,0,0.67,0.17,0.87,0.46l1.78,2.62c0.08,0.11,0.18,0.21,0.29,0.29l4.41,0.02" />
			<line fill="none" stroke="#232323" stroke-width="1.5" stroke-linecap="round" stroke-linejoin="round" stroke-miterlimit="10" x1="7.54" y1="17.26" x2="5.44" y2="21.45" />
			<line fill="none" stroke="#232323" stroke-width="1.5" stroke-linecap="round" stroke-linejoin="round" stroke-miterlimit="10" x1="17.74" y1="11.22" x2="17.74" y2="22.5" />
		</g>
		<g>
			<path fill="none" stroke="#232323" stroke-width="1.5" stroke-linecap="round" stroke-linejoin="round" stroke-miterlimit="10" d="M9.08,10.55v4.15c0,0.24-0.19,0.43-0.43,0.43H5.92H5.41c-0.24,0-0.43-0.19-0.43-0.43v-4.15V9.46
			c0-1.13,0.91-2.04,2.04-2.04s2.04,0.91,2.04,2.04L9.08,10.55z" />
			<line fill="none" stroke="#232323" stroke-width="1.5" stroke-linecap="round" stroke-linejoin="round" stroke-miterlimit="10" x1="4.98" y1="10.52" x2="9.08" y2="10.52" />
		</g>
	</g>
</svg>
