<svg version="1.1" id="Layer_1" xmlns="http://www.w3.org/2000/svg" x="0" y="0" viewBox="0 0 24 24" xml:space="preserve" enable-background="new 0 0 24 24" width="24" height="24"><title>bathroom interior</title><g class="nc-icon-wrapper" fill="#232323"><path class="st2" d="M9.13 18.97H3.85V4.36h16.28v14.61h-5.27" fill="none" stroke="#232323" stroke-width="1.5" stroke-linecap="round" stroke-linejoin="round" stroke-miterlimit="10"/><path class="st2" d="M1 3.2l2.85 1.16" fill="none" stroke="#232323" stroke-width="1.5" stroke-linecap="round" stroke-linejoin="round" stroke-miterlimit="10"/><path class="st2" d="M23 3.2l-2.85 1.16" fill="none" stroke="#232323" stroke-width="1.5" stroke-linecap="round" stroke-linejoin="round" stroke-miterlimit="10"/><path class="st2" d="M1 20.8l2.85-1.83" fill="none" stroke="#232323" stroke-width="1.5" stroke-linecap="round" stroke-linejoin="round" stroke-miterlimit="10"/><path class="st2" d="M22.98 20.8l-2.85-1.83" fill="none" stroke="#232323" stroke-width="1.5" stroke-linecap="round" stroke-linejoin="round" stroke-miterlimit="10"/><g transform="translate(.5 .5)"><path class="st3" d="M8.62 15.04v-4.3c0-.53.43-.96.96-.96h3.83c.53 0 .96.43.96.96v4.3" fill="none" stroke="#232323" stroke-width="1.5" stroke-linecap="round" stroke-linejoin="round" stroke-miterlimit="10"/><path class="st3" d="M15.79 15.04H7.18V16c0 1.58 1.29 2.87 2.87 2.87v1.43h2.87v-1.43c1.58 0 2.87-1.29 2.87-2.87v-.96z" fill="none" stroke="#232323" stroke-width="1.5" stroke-linecap="round" stroke-linejoin="round" stroke-miterlimit="10"/></g></g></svg>