<svg version="1.1" id="Layer_1" xmlns="http://www.w3.org/2000/svg" x="0" y="0" viewBox="0 0 24 24" xml:space="preserve" enable-background="new 0 0 24 24" width="24" height="24"><title>beachfront</title><g class="nc-icon-wrapper" fill="#232323"><path class="st0" d="M5.77 5.51l-.29-.72" fill="none" stroke="#232323" stroke-width="1.5" stroke-linecap="round" stroke-linejoin="round" stroke-miterlimit="10"/><path class="st0" d="M10.58 17.42l-2.75-6.75" fill="none" stroke="#232323" stroke-width="1.5" stroke-linecap="round" stroke-linejoin="round" stroke-miterlimit="10"/><path class="st0" d="M8.12 10.55l2.96-1.23 2.64-1.01a.33.33 0 0 0 .18-.43l-.03-.06c-1.73-2.46-5.07-3.31-7.9-2.31l-.61.25c-2.71 1.3-4.23 4.08-3.7 7.03a.339.339 0 0 0 .46.25l2.43-1.01 2.96-1.23.61-.25z" fill="none" stroke="#232323" stroke-width="1.5" stroke-linecap="round" stroke-linejoin="round" stroke-miterlimit="10"/><path class="st0" d="M5.05 11.82S4 7.17 5.77 5.51" fill="none" stroke="#232323" stroke-width="1.5" stroke-linecap="round" stroke-linejoin="round" stroke-miterlimit="10"/><path class="st0" d="M10.78 9.45S8.25 5.8 5.77 5.51" fill="none" stroke="#232323" stroke-width="1.5" stroke-linecap="round" stroke-linejoin="round" stroke-miterlimit="10"/><path class="st0" d="M1 20.64s1.51-3.02 10.56-3.22c0 0 9.79-.07 11.44 3.39" fill="none" stroke="#232323" stroke-width="1.5" stroke-linecap="round" stroke-linejoin="round" stroke-miterlimit="10"/><circle class="st0" cx="19.21" cy="5.49" r="2.3" fill="none" stroke="#232323" stroke-width="1.5" stroke-linecap="round" stroke-linejoin="round" stroke-miterlimit="10"/></g></svg>