<?xml version="1.0" encoding="utf-8"?>
<svg version="1.1" id="Layer_1" xmlns="http://www.w3.org/2000/svg" xmlns:xlink="http://www.w3.org/1999/xlink" x="0px" y="0px" viewBox="0 0 24 24" style="enable-background:new 0 0 24 24;" xml:space="preserve">
	<g>
		<g>
			<g>
				<path fill="none" stroke="#232323" stroke-width="1.5" stroke-linecap="round" stroke-linejoin="round" stroke-miterlimit="10" d="M12.6,19c1.2-0.1,2.4-0.4,3.4-1c0,0,0.5-0.3,1.1-0.7c0.3-0.2,0.6-0.5,0.9-0.8c1.6-1.5,2.5-3.5,2.5-5.5
				l-17.2,0c0,2,0.9,3.9,2.5,5.5c0.3,0.3,0.6,0.5,0.9,0.8c0,0,0.5,0.4,1.1,0.7c1.1,0.6,2.2,0.9,3.4,1C12,19,12.6,19,12.6,19z" />
			</g>
		</g>
		<path fill="none" stroke="#232323" stroke-width="1.5" stroke-linecap="round" stroke-linejoin="round" stroke-miterlimit="10" d="M7.4,5.5" />
		<path fill="none" stroke="#232323" stroke-width="1.5" stroke-linecap="round" stroke-linejoin="round" stroke-miterlimit="10" d="M12,11.1V5.5c0-1.2-1-2.3-2.3-2.3l0,0c-1.2,0-2.3,1-2.3,2.3v0.1" />
		<path fill="none" stroke="#232323" stroke-width="1.5" stroke-linecap="round" stroke-linejoin="round" stroke-miterlimit="10" d="M17.7,3.9c0-1.6-1.3-2.9-2.9-2.9l0,0C13.3,1,12,2.3,12,3.9v7.2" />
		<line fill="none" stroke="#232323" stroke-width="1.5" stroke-linecap="round" stroke-linejoin="round" stroke-miterlimit="10" x1="7.4" y1="17.7" x2="7.4" y2="23" />
		<line fill="none" stroke="#232323" stroke-width="1.5" stroke-linecap="round" stroke-linejoin="round" stroke-miterlimit="10" x1="16.5" y1="17.7" x2="16.5" y2="23" />
		<line fill="none" stroke="#232323" stroke-width="1.5" stroke-linecap="round" stroke-linejoin="round" stroke-miterlimit="10" x1="17.7" y1="23" x2="6.3" y2="23" />
	</g>
</svg>
