<svg xmlns="http://www.w3.org/2000/svg" viewBox="0 0 24 24" width="24" height="24"><title>boat</title><g class="nc-icon-wrapper" transform="translate(0.5, 0.5)" fill="#232323"><polyline fill="none" stroke="#232323" stroke-width="1.5" stroke-linecap="round" stroke-miterlimit="10" points="6,7 6,2 10,2 10,7 " stroke-linejoin="round"/> <polyline data-cap="butt" fill="none" stroke="#232323" stroke-width="1.5" stroke-miterlimit="10" points="4,11 4,7 16,7 18,11 " stroke-linejoin="round" stroke-linecap="round"/> <polyline fill="none" stroke="#232323" stroke-width="1.5" stroke-linecap="round" stroke-miterlimit="10" points="4,17 2,11 22,11 19,17 " stroke-linejoin="round"/> <path data-color="color-2" fill="none" stroke="#232323" stroke-width="1.5" stroke-linecap="round" stroke-miterlimit="10" d="M1,18 c0,2.2,1.8,4,4,4c1.5,0,2.8-0.9,3.5-2.1c0.7,1.2,2,2.1,3.5,2.1s2.8-0.9,3.5-2.1c0.7,1.2,2,2.1,3.5,2.1c2.2,0,4-1.8,4-4" stroke-linejoin="round"/></g></svg>