<svg version="1.1" id="Layer_1" xmlns="http://www.w3.org/2000/svg" x="0" y="0" viewBox="0 0 24 24" xml:space="preserve" enable-background="new 0 0 24 24" width="24" height="24"><title>conference</title><g class="nc-icon-wrapper" fill="#232323"><circle cx="18.74" cy="7.1" r="1.43"/><path class="st0" d="M7.02 19.02H3.23c-.32 0-.6-.2-.71-.5L1.05 14.5a.769.769 0 0 1 .09-.69c.14-.2.37-.32.62-.32h20.49a.754.754 0 0 1 .71 1.01l-1.48 4.02c-.11.3-.39.5-.71.5h-3.96" fill="none" stroke="#232323" stroke-width="1.5" stroke-linecap="round" stroke-linejoin="round" stroke-miterlimit="10"/><path class="st0" d="M7.61 22.86l-.86-5.61a.653.653 0 0 1 .64-.75h9.06c.19 0 .37.08.49.23.12.14.18.33.15.52l-.86 5.61" fill="none" stroke="#232323" stroke-width="1.5" stroke-linecap="round" stroke-linejoin="round" stroke-miterlimit="10"/><path class="st0" d="M4.39 13.49a4.345 4.345 0 0 1 4.33-4.03h6.39c2.29 0 4.17 1.78 4.33 4.03" fill="none" stroke="#232323" stroke-width="1.5" stroke-linecap="round" stroke-linejoin="round" stroke-miterlimit="10"/><circle class="st0" cx="11.94" cy="4.4" r="3.26" fill="none" stroke="#232323" stroke-width="1.5" stroke-linecap="round" stroke-linejoin="round" stroke-miterlimit="10"/><path class="st0" d="M19.79 7.89c1.7 1.37 2.73 3.47 2.73 5.67" fill="none" stroke="#232323" stroke-width="1.5" stroke-linecap="round" stroke-linejoin="round" stroke-miterlimit="10"/></g></svg>