<svg version="1.1" id="Layer_1" xmlns="http://www.w3.org/2000/svg" x="0" y="0" viewBox="0 0 24 24" xml:space="preserve" enable-background="new 0 0 24 24" width="24" height="24"><title>dry cleaning</title><g class="nc-icon-wrapper" fill="#232323"><path d="M6.95 3.8c.01.33.28.6.61.6h.75c.34 0 .61-.27.61-.6V2.06a.617.617 0 0 0-.61-.6h-.75c-.34 0-.61.27-.61.6V3.8z"/><path class="st0" d="M6.97 2.93C5.37 2.49 3.47 1.77 2 1.01" fill="none" stroke="#232323" stroke-width="1.5" stroke-linecap="round" stroke-linejoin="round" stroke-miterlimit="10"/><path class="st0" d="M16.44 3.22c-1.39.25-3.04.46-4.44.46s-3.05-.2-4.44-.46" fill="none" stroke="#232323" stroke-width="1.5" stroke-linecap="round" stroke-linejoin="round" stroke-miterlimit="10"/><path class="st0" d="M22 1.01c-1.47.77-3.39 1.47-4.99 1.91" fill="none" stroke="#232323" stroke-width="1.5" stroke-linecap="round" stroke-linejoin="round" stroke-miterlimit="10"/><path class="st0" d="M15.78 4.96c-1.15.41-2.52.67-3.73.67s-2.62-.26-3.78-.67" fill="none" stroke="#232323" stroke-width="1.5" stroke-linecap="round" stroke-linejoin="round" stroke-miterlimit="10"/><path d="M15.17 3.8c.01.33.28.6.61.6h.75c.34 0 .61-.27.61-.6V2.06a.617.617 0 0 0-.61-.6h-.75c-.34 0-.61.27-.61.6V3.8z"/><path class="st0" d="M12.05 7.89a3.67 3.67 0 0 1-3.13-1.74l-.69-1.22-.17-.26-.07-.12c-.3-.3-.7-.22-1 .08l-.73.57-4.03 3-.55.4c-.15.11-.18.32-.07.47l2.8 3.8c.11.15.32.18.47.07l.7-.52 1.12-.83V22.6c0 .19.15.34.34.34h9.84c.19 0 .34-.15.34-.34V11.59l1.12.83.7.52c.15.11.36.08.47-.07l2.8-3.8c.11-.15.08-.36-.07-.47l-.54-.4-3.96-3-.64-.57c-.3-.3-.7-.38-1-.08l-.08.12-.16.26-.69 1.21a3.65 3.65 0 0 1-3.12 1.75" fill="none" stroke="#232323" stroke-width="1.5" stroke-linecap="round" stroke-linejoin="round" stroke-miterlimit="10"/></g></svg>