<svg version="1.1" id="Layer_1" xmlns="http://www.w3.org/2000/svg" x="0" y="0" viewBox="0 0 24 24" xml:space="preserve" enable-background="new 0 0 24 24" width="24" height="24"><title>entrance</title><g class="nc-icon-wrapper" fill="#232323"><path class="st0" d="M22.86 23.05V1.34a.39.39 0 0 0-.39-.39H1.53a.39.39 0 0 0-.39.39v21.7l7.69-3.13c.14-.05.24-.19.24-.34V5.23c0-.15-.09-.29-.24-.34L1.53.95" fill="none" stroke="#232323" stroke-width="1.5" stroke-linecap="round" stroke-linejoin="round" stroke-miterlimit="10"/><path class="st0" d="M22.47.95l-7.3 3.94c-.14.05-.24.19-.24.34v14.34c0 .15.09.29.24.34l7.69 3.13" fill="none" stroke="#232323" stroke-width="1.5" stroke-linecap="round" stroke-linejoin="round" stroke-miterlimit="10"/><path class="st0" d="M17.49 9.57v4.86" fill="none" stroke="#232323" stroke-width="1.5" stroke-linecap="round" stroke-linejoin="round" stroke-miterlimit="10"/><path class="st0" d="M6.51 9.19v4.87" fill="none" stroke="#232323" stroke-width="1.5" stroke-linecap="round" stroke-linejoin="round" stroke-miterlimit="10"/></g></svg>