<svg version="1.1" id="Layer_1" xmlns="http://www.w3.org/2000/svg" x="0" y="0" viewBox="0 0 24 24" xml:space="preserve" enable-background="new 0 0 24 24" width="24" height="24"><title>heated pool</title><g class="nc-icon-wrapper" fill="#232323"><path class="st1" d="M1 10.42c0 .33.27.61.61.61H22.4c.33 0 .61-.27.61-.61V8.85c0-.33-.27-.61-.61-.61H1.61c-.34 0-.61.28-.61.61v1.57z" fill="none" stroke="#232323" stroke-width="1.5" stroke-miterlimit="10"/><path class="st1" d="M2.4 19.85v-8.83 10.4c0 .33.27.61.61.61h18.2c.33 0 .61-.27.61-.61v-10.4" fill="none" stroke="#232323" stroke-width="1.5" stroke-miterlimit="10"/><path class="st1" d="M21.51 8.18V6.11c0-.82-.66-1.48-1.48-1.48s-1.48.66-1.48 1.48v2.07" fill="none" stroke="#232323" stroke-width="1.5" stroke-miterlimit="10"/><path class="st1" d="M18.85 5.21c-.27-.36-.7-.58-1.18-.58-.82 0-1.48.66-1.48 1.48v2.07" fill="none" stroke="#232323" stroke-width="1.5" stroke-miterlimit="10"/><g><path class="st0" d="M4.63 5.96c0-.59-.24-.91-.41-1.15-.14-.2-.23-.31-.23-.6s.09-.4.23-.6c.17-.24.41-.56.41-1.15 0-.59-.24-.91-.41-1.15" fill="none" stroke="#232323" stroke-width="1.5" stroke-linecap="round" stroke-linejoin="round" stroke-miterlimit="10"/><path class="st0" d="M7.7 5.96c0-.59-.24-.91-.41-1.15-.14-.2-.23-.31-.23-.6s.09-.4.23-.6c.17-.23.41-.55.41-1.14 0-.59-.24-.91-.41-1.15" fill="none" stroke="#232323" stroke-width="1.5" stroke-linecap="round" stroke-linejoin="round" stroke-miterlimit="10"/><path class="st0" d="M10.77 5.96c0-.59-.24-.91-.41-1.15-.14-.2-.23-.31-.23-.6s.09-.4.23-.6c.17-.24.41-.56.41-1.15 0-.59-.24-.91-.41-1.15" fill="none" stroke="#232323" stroke-width="1.5" stroke-linecap="round" stroke-linejoin="round" stroke-miterlimit="10"/></g></g></svg>