<svg xmlns="http://www.w3.org/2000/svg" viewBox="0 0 24 24" width="24" height="24"><title>hotel</title><g class="nc-icon-wrapper" stroke-linecap="round" stroke-linejoin="round" stroke-width="1.5" transform="translate(0.5 0.5)" fill="#232323" stroke="#232323"><polyline data-color="color-2" fill="none" stroke-miterlimit="10" points=" 5,23 1,23 1,14 5,14 "/> <polyline data-color="color-2" fill="none" stroke-miterlimit="10" points=" 19,23 23,23 23,14 19,14 "/> <rect x="5" y="1" fill="none" stroke="#232323" stroke-miterlimit="10" width="14" height="22"/> <line fill="none" stroke="#232323" stroke-miterlimit="10" x1="9" y1="5" x2="10" y2="5"/> <line fill="none" stroke="#232323" stroke-miterlimit="10" x1="14" y1="5" x2="15" y2="5"/> <line fill="none" stroke="#232323" stroke-miterlimit="10" x1="9" y1="9" x2="10" y2="9"/> <line fill="none" stroke="#232323" stroke-miterlimit="10" x1="14" y1="9" x2="15" y2="9"/> <line fill="none" stroke="#232323" stroke-miterlimit="10" x1="9" y1="13" x2="10" y2="13"/> <line fill="none" stroke="#232323" stroke-miterlimit="10" x1="14" y1="13" x2="15" y2="13"/> <line fill="none" stroke="#232323" stroke-miterlimit="10" x1="9" y1="17" x2="10" y2="17"/> <line fill="none" stroke="#232323" stroke-miterlimit="10" x1="14" y1="17" x2="15" y2="17"/> <line fill="none" stroke="#232323" stroke-miterlimit="10" x1="12" y1="23" x2="12" y2="21"/></g></svg>