<?xml version="1.0" encoding="utf-8"?>
<svg version="1.1" id="Layer_1" xmlns="http://www.w3.org/2000/svg" xmlns:xlink="http://www.w3.org/1999/xlink" x="0px" y="0px" viewBox="0 0 24 24" style="enable-background:new 0 0 24 24;" xml:space="preserve">
	<g>
		<g transform="translate(0.5 0.5)">
			<path fill="none" stroke="#232323" stroke-width="1.5" stroke-linecap="round" stroke-linejoin="round" stroke-miterlimit="10" d="M20,13V4.5C20,2.6,18.4,1,16.5,1l0,0C14.6,1,13,2.6,13,4.5V5l0,0" />
			<line fill="none" stroke="#232323" stroke-width="1.5" stroke-linecap="round" stroke-linejoin="round" stroke-miterlimit="10" x1="6" y1="20" x2="6" y2="23" />
			<line fill="none" stroke="#232323" stroke-width="1.5" stroke-linecap="round" stroke-linejoin="round" stroke-miterlimit="10" x1="18" y1="20" x2="18" y2="23" />
			<path fill="none" stroke="#232323" stroke-width="1.5" stroke-linecap="round" stroke-linejoin="round" stroke-miterlimit="10" d="M1,13v3c0,2.2,1.8,4,4,4h14c2.2,0,4-1.8,4-4v-3H1z" />
		</g>
		<path fill="none" stroke="#232323" stroke-width="1.5" stroke-miterlimit="10" d="M2.6,12.8c0-0.9,0.7-1.6,1.6-1.6s1.6,0.7,1.6,1.6" />
		<path fill="none" stroke="#232323" stroke-width="1.5" stroke-miterlimit="10" d="M6.1,12.8c0-0.9,0.7-1.6,1.6-1.6s1.6,0.7,1.6,1.6" />
		<path fill="none" stroke="#232323" stroke-width="1.5" stroke-miterlimit="10" d="M10.1,12.8c0-1.4,1.1-2.5,2.5-2.5s2.5,1.1,2.5,2.5" />
		<path fill="none" stroke="#232323" stroke-width="1.5" stroke-miterlimit="10" d="M16.4,12.8c0-0.8,0.6-1.4,1.4-1.4c0.8,0,1.4,0.6,1.4,1.4" />
		<circle fill="#232323" cx="4.6" cy="8.1" r="0.6" />
		<circle fill="#232323" cx="8" cy="4.2" r="0.6" />
		<circle fill="#232323" cx="10.4" cy="6.8" r="0.6" />
	</g>
</svg>
