<svg version="1.1" id="Layer_1" xmlns="http://www.w3.org/2000/svg" x="0" y="0" viewBox="0 0 24 24" xml:space="preserve" enable-background="new 0 0 24 24" width="24" height="24"><title>lifevest</title><g class="nc-icon-wrapper" fill="#232323"><path class="st2" d="M12 8.12C11.02 6.3 8.87 1 7.59 1h-.28c-.84 0-1.53.68-1.53 1.52v4.53c0 .84-.46 1.54-1.54 1.54H3.19c-1.14 0-1.7.41-1.7 1.7v10.1C1.48 22.08 2.4 23 4.09 23h15.82c1.69 0 2.61-.92 2.61-2.61v-10.1c0-1.3-.57-1.7-1.7-1.7h-1.05c-1.08 0-1.54-.7-1.54-1.54V2.52c0-.84-.68-1.52-1.52-1.52h-.29C15.13 1 12.98 6.3 12 8.12" fill="none" stroke="#232323" stroke-width="1.5" stroke-linecap="round" stroke-linejoin="round" stroke-miterlimit="10"/><path class="st2" d="M12 23V8.12" fill="none" stroke="#232323" stroke-width="1.5" stroke-linecap="round" stroke-linejoin="round" stroke-miterlimit="10"/><path class="st2" d="M1.48 14.04h21.04" fill="none" stroke="#232323" stroke-width="1.5" stroke-linecap="round" stroke-linejoin="round" stroke-miterlimit="10"/><path class="st2" d="M1.48 18.08h21.04" fill="none" stroke="#232323" stroke-width="1.5" stroke-linecap="round" stroke-linejoin="round" stroke-miterlimit="10"/><path d="M14.9 12h4.49v3.58H14.9z"/><path d="M14.9 16.29h4.49v3.58H14.9z"/><path class="st2" d="M16.69 1H7.31" fill="none" stroke="#232323" stroke-width="1.5" stroke-linecap="round" stroke-linejoin="round" stroke-miterlimit="10"/></g></svg>