<svg xmlns="http://www.w3.org/2000/svg" viewBox="0 0 24 24" width="24" height="24"><title>handshake</title><g class="nc-icon-wrapper" stroke-linecap="round" stroke-linejoin="round" stroke-width="1.5" transform="translate(0.5 0.5)" fill="#232323" stroke="#232323"><path d="M14,8l-2.172,2.172a4,4,0,0,1-5.656,0L6,10l4.929-4.929a7.072,7.072,0,0,1,10,0h0A7.074,7.074,0,0,1,22,13.7" fill="none" stroke="#232323" stroke-miterlimit="10"/> <path data-color="color-2" d="M15.266,11.266l3.613,3.613a3,3,0,0,1,0,4.242l-1.636,1.636a6,6,0,0,1-8.486,0L3.071,15.071a7.072,7.072,0,0,1,0-10h0A7.048,7.048,0,0,1,8,3" fill="none" stroke-miterlimit="10"/> <line data-cap="butt" data-color="color-2" x1="18.391" y1="19.609" x2="14.5" y2="15.719" fill="none" stroke-miterlimit="10"/> <line data-cap="butt" data-color="color-2" x1="15.513" y1="21.965" x2="11.883" y2="18.335" fill="none" stroke-miterlimit="10"/></g></svg>