<svg xmlns="http://www.w3.org/2000/svg" viewBox="0 0 24 24" width="24" height="24"><title>pet friendly</title><g class="nc-icon-wrapper" transform="translate(0.5, 0.5)" fill="#232323"><line x1="14.706" y1="8.353" x2="19.556" y2="10.778" fill="none" stroke="#232323" stroke-miterlimit="10" stroke-width="1.5" data-cap="butt" data-color="color-2" stroke-linecap="round"/><path d="M19,5,17,3,14.26,9.394a1,1,0,0,1-.919.606H6a2,2,0,0,0-2,2V22H7V19.236a.993.993,0,0,1,.106-.447L9,15l5.316,1.772a1,1,0,0,1,.684.949V22h3V17l2-8h1a2,2,0,0,0,2-2V5Z" fill="none" stroke="#232323" stroke-miterlimit="10" stroke-width="1.5" data-cap="butt" stroke-linecap="round"/><path d="M12,7A6,6,0,0,1,6,1" fill="none" stroke="#232323" stroke-linecap="round" stroke-miterlimit="10" stroke-width="1.5" data-color="color-2" stroke-linejoin="round"/><path d="M1,7a3,3,0,0,0,3,3H5" fill="none" stroke="#232323" stroke-linecap="round" stroke-miterlimit="10" stroke-width="1.5" stroke-linejoin="round"/></g></svg>