<?xml version="1.0" encoding="utf-8"?>
<svg version="1.1" id="Layer_1" xmlns="http://www.w3.org/2000/svg" xmlns:xlink="http://www.w3.org/1999/xlink" x="0px" y="0px" viewBox="0 0 24 24" style="enable-background:new 0 0 24 24;" xml:space="preserve">
	<g transform="translate(0.5 0.5)">
		<path fill="none" stroke="#232323" stroke-width="1.5" stroke-linecap="round" stroke-linejoin="round" stroke-miterlimit="10" d="M15.1,13.9l-2.4,2.3c-1.2-0.7-2.4-1.6-3.4-2.6c-1-1-1.9-2.2-2.6-3.4l2.3-2.4c0.3-0.3,0.4-0.7,0.2-1.1L6.9,1.1
		C6.7,0.7,6.2,0.4,5.7,0.5L1.3,1.7c-0.5,0.1-0.8,0.5-0.8,1c0.3,5.2,2.4,10,6,13.7c3.7,3.6,8.6,5.8,13.7,6c0.5,0,0.9-0.3,1-0.8
		l1.2-4.4c0.1-0.5-0.1-1-0.6-1.2l-5.6-2.4C15.9,13.5,15.4,13.6,15.1,13.9z" />
	</g>
</svg>
