<svg xmlns="http://www.w3.org/2000/svg" viewBox="0 0 24 24" width="24" height="24"><title>private tour</title><g class="nc-icon-wrapper" transform="translate(0.5, 0.5)" fill="#232323"><path data-cap="butt" data-color="color-2" fill="none" stroke="#232323" stroke-width="1.5" stroke-miterlimit="10" d="M13,23h10v-8.8 c0-0.739-0.407-1.417-1.059-1.765l-4.007-2.15" stroke-linejoin="round" stroke-linecap="round"/> <line data-cap="butt" data-color="color-2" fill="none" stroke="#232323" stroke-width="1.5" stroke-miterlimit="10" x1="13.077" y1="10.292" x2="10.727" y2="11.545" stroke-linejoin="round" stroke-linecap="round"/> <path data-color="color-2" fill="none" stroke="#232323" stroke-width="1.5" stroke-linecap="round" stroke-miterlimit="10" d="M15.5,11 L15.5,11C13.015,11,11,8.985,11,6.5v-1C11,3.015,13.015,1,15.5,1h0C17.985,1,20,3.015,20,5.5v1C20,8.985,17.985,11,15.5,11z" stroke-linejoin="round"/> <path data-cap="butt" fill="none" stroke="#232323" stroke-width="1.5" stroke-miterlimit="10" d="M4.592,17.195l-2.487,1.253 C1.428,18.786,1,19.479,1,20.236V23h12v-2.764c0-0.758-0.428-1.45-1.106-1.789l-2.487-1.253" stroke-linejoin="round" stroke-linecap="round"/> <path fill="none" stroke="#232323" stroke-width="1.5" stroke-linecap="round" stroke-miterlimit="10" d="M7,18L7,18 c-2.209,0-4-1.791-4-4v-1c0-2.209,1.791-4,4-4h0c2.209,0,4,1.791,4,4v1C11,16.209,9.209,18,7,18z" stroke-linejoin="round"/></g></svg>