<svg version="1.1" id="Layer_1" xmlns="http://www.w3.org/2000/svg" x="0" y="0" viewBox="0 0 24 24" xml:space="preserve" enable-background="new 0 0 24 24" width="24" height="24"><title>room entrance</title><g class="nc-icon-wrapper" fill="#232323"><path class="st0" d="M12.84 2.07h5.86c.22 0 .41.18.41.41v19.13c0 .22-.18.41-.41.41h-5.86" fill="none" stroke="#232323" stroke-width="1.5" stroke-linecap="round" stroke-linejoin="round" stroke-miterlimit="10"/><path class="st0" d="M4.9 5.26v15.92c0 .19.13.35.32.39l1.36.27L12 22.93l.37.06c.02.01.05.01.07.01.09 0 .18-.03.25-.09a.42.42 0 0 0 .15-.31V1.39c0-.12-.06-.24-.16-.32-.1-.08-.23-.1-.34-.07L5.9 2.73l-.71.19c-.17.05-.29.2-.29.38v1.96z" fill="none" stroke="#232323" stroke-width="1.5" stroke-linecap="round" stroke-linejoin="round" stroke-miterlimit="10"/><path class="st0" d="M10.48 12.86H9.03" fill="none" stroke="#232323" stroke-width="1.5" stroke-linecap="round" stroke-linejoin="round" stroke-miterlimit="10"/></g></svg>