<svg version="1.1" id="Layer_1" xmlns="http://www.w3.org/2000/svg" x="0" y="0" viewBox="0 0 24 24" xml:space="preserve" enable-background="new 0 0 24 24" width="24" height="24"><title>safety equipment</title><g class="nc-icon-wrapper" fill="#232323"><path class="st2" d="M2.41 13.99h19.18" fill="none" stroke="#232323" stroke-width="1.5" stroke-linecap="round" stroke-linejoin="round" stroke-miterlimit="10"/><path class="st2" d="M9.5 2.58a8.394 8.394 0 0 0-5.9 8.02v1.6" fill="none" stroke="#232323" stroke-width="1.5" stroke-linecap="round" stroke-linejoin="round" stroke-miterlimit="10"/><path class="st2" d="M20.4 12.2v-1.6c0-3.75-2.46-6.93-5.86-8.01" fill="none" stroke="#232323" stroke-width="1.5" stroke-linecap="round" stroke-linejoin="round" stroke-miterlimit="10"/><path class="st2" d="M14.49 7.9V2.16A1.5 1.5 0 0 0 13 .74h-1.99c-.8 0-1.45.63-1.49 1.42V7.9" fill="none" stroke="#232323" stroke-width="1.5" stroke-linecap="round" stroke-linejoin="round" stroke-miterlimit="10"/><path class="st2" d="M7.21 6.82V3.7" fill="none" stroke="#232323" stroke-width="1.5" stroke-linecap="round" stroke-linejoin="round" stroke-miterlimit="10"/><path class="st2" d="M16.76 6.82V3.7" fill="none" stroke="#232323" stroke-width="1.5" stroke-linecap="round" stroke-linejoin="round" stroke-miterlimit="10"/><path class="st1" d="M19.61 20.57c-.01 1.39-2.37 2.67-4.19 2.66-1.63-.01-1.95-.97-1.95-1.75v-.6c-.01-1.87-2.92-1.85-2.91.02v.6c.01.78-.33 1.72-1.96 1.73-1.82.01-4.18-1.28-4.19-2.66l-.01-2.91c0-.32.25-.58.57-.58l14.04-.1c.3 0 .58.25.58.57l.02 2.91v.11z" fill="none" stroke="#232323" stroke-width="1.5" stroke-miterlimit="10"/><path class="st2" d="M19.61 19.16l3.11-2.64" fill="none" stroke="#232323" stroke-width="1.5" stroke-linecap="round" stroke-linejoin="round" stroke-miterlimit="10"/><path class="st2" d="M1.28 16.52l3.12 2.64" fill="none" stroke="#232323" stroke-width="1.5" stroke-linecap="round" stroke-linejoin="round" stroke-miterlimit="10"/></g></svg>