<svg version="1.1" id="Layer_1" xmlns="http://www.w3.org/2000/svg" x="0" y="0" viewBox="0 0 24 24" xml:space="preserve" enable-background="new 0 0 24 24" width="24" height="24"><title>sauna</title><g class="nc-icon-wrapper" fill="#232323"><circle class="st0" cx="8.34" cy="5.72" r="2.2" fill="none" stroke="#232323" stroke-width="1.5" stroke-linecap="round" stroke-linejoin="round" stroke-miterlimit="10"/><path class="st0" d="M.94 20.58h13.6" fill="none" stroke="#232323" stroke-width="1.5" stroke-linecap="round" stroke-linejoin="round" stroke-miterlimit="10"/><path class="st0" d="M6.91 9.97h3.83v7.96H6.91z" fill="none" stroke="#232323" stroke-width="1.5" stroke-linecap="round" stroke-linejoin="round" stroke-miterlimit="10"/><path class="st0" d="M2.75 18.32l3.74-8.35" fill="none" stroke="#232323" stroke-width="1.5" stroke-linecap="round" stroke-linejoin="round" stroke-miterlimit="10"/><path class="st0" d="M10.74 16.98h5L18.45 23" fill="none" stroke="#232323" stroke-width="1.5" stroke-linecap="round" stroke-linejoin="round" stroke-miterlimit="10"/><path class="st0" d="M15.71 5.72c0-.6-.24-.93-.42-1.17-.15-.2-.24-.32-.24-.61s.09-.41.24-.61c.18-.24.42-.57.42-1.17s-.24-.93-.42-1.17" fill="none" stroke="#232323" stroke-width="1.5" stroke-linecap="round" stroke-linejoin="round" stroke-miterlimit="10"/><path class="st0" d="M18.84 5.72c0-.6-.24-.93-.42-1.17-.15-.2-.24-.32-.24-.61s.09-.41.24-.61c.18-.24.42-.57.42-1.17s-.24-.93-.42-1.17" fill="none" stroke="#232323" stroke-width="1.5" stroke-linecap="round" stroke-linejoin="round" stroke-miterlimit="10"/><path class="st0" d="M21.97 5.72c0-.6-.24-.93-.42-1.17-.15-.2-.24-.32-.24-.61s.09-.41.24-.61c.18-.24.42-.57.42-1.17s-.24-.93-.42-1.17" fill="none" stroke="#232323" stroke-width="1.5" stroke-linecap="round" stroke-linejoin="round" stroke-miterlimit="10"/></g></svg>