<svg xmlns="http://www.w3.org/2000/svg" viewBox="0 0 24 24" width="24" height="24"><title>senior</title><g class="nc-icon-wrapper" transform="translate(0.5, 0.5)" fill="#232323"><line x1="20" y1="18" x2="14" y2="18" fill="none" stroke="#232323" stroke-linecap="round" stroke-miterlimit="10" stroke-width="1.5" data-color="color-2" stroke-linejoin="round"/><circle cx="12" cy="3" r="2" fill="none" stroke="#232323" stroke-linecap="round" stroke-miterlimit="10" stroke-width="1.5" stroke-linejoin="round"/><path d="M14.094,15.29A2.861,2.861,0,0,0,14,16v7" fill="none" stroke="#232323" stroke-linecap="round" stroke-miterlimit="10" stroke-width="1.5" data-color="color-2" stroke-linejoin="round"/><circle cx="20" cy="22" r="1" fill="none" stroke="#232323" stroke-linecap="round" stroke-miterlimit="10" stroke-width="1.5" data-color="color-2" stroke-linejoin="round"/><path d="M20,21V16a2.968,2.968,0,0,0-.416-1.5" fill="none" stroke="#232323" stroke-linecap="round" stroke-miterlimit="10" stroke-width="1.5" data-color="color-2" stroke-linejoin="round"/><path d="M17,13l-3.164-.9a1,1,0,0,1-.539-.38l-2-2.795a2.084,2.084,0,0,0-3.349-.059l-3.4,4.418a2,2,0,0,0-.376,1.611L5,19v4" fill="none" stroke="#232323" stroke-linecap="round" stroke-linejoin="round" stroke-width="1.5"/></g></svg>