<svg version="1.1" id="Layer_1" xmlns="http://www.w3.org/2000/svg" x="0" y="0" viewBox="0 0 24 24" xml:space="preserve" enable-background="new 0 0 24 24" width="24" height="24"><title>spa</title><g class="nc-icon-wrapper" fill="#232323"><path class="st0" d="M5.16 3.83c.76 0 1.37.61 1.37 1.37v10.47c0 .36.3.66.66.66h12.35c.36 0 .66-.3.66-.66L20.19 5.2c0-.76-.61-1.37-1.37-1.37H5.15c-.76 0-1.37.61-1.37 1.37v.95" fill="none" stroke="#232323" stroke-width="1.5" stroke-linecap="round" stroke-linejoin="round" stroke-miterlimit="10"/><path class="st0" d="M1 6.15h5.53" fill="none" stroke="#232323" stroke-width="1.5" stroke-linecap="round" stroke-linejoin="round" stroke-miterlimit="10"/><path class="st0" d="M3.78 8.68v10.84c0 .36.3.66.66.66h12.35c.36 0 .66-.3.66-.66v-.9" fill="none" stroke="#232323" stroke-width="1.5" stroke-linecap="round" stroke-linejoin="round" stroke-miterlimit="10"/><path class="st0" d="M20.9 6.15H23" fill="none" stroke="#232323" stroke-width="1.5" stroke-linecap="round" stroke-linejoin="round" stroke-miterlimit="10"/></g></svg>