<?xml version="1.0" encoding="utf-8"?>
<svg version="1.1" id="Layer_1" xmlns="http://www.w3.org/2000/svg" xmlns:xlink="http://www.w3.org/1999/xlink" x="0px" y="0px" viewBox="0 0 24 24" style="enable-background:new 0 0 24 24;" xml:space="preserve">
	<g>
		<path d="M2,1H22c0.6,0,1,0.5,1,1V22c0,0.6-0.5,1-1,1H2c-0.6,0-1-0.5-1-1V2C1,1.5,1.5,1,2,1z" />
		<path fill="%#6AC9D0%" d="M10.3,9.5v2.9C9,12,7.6,12.8,7.2,14.1c-0.1,0.2-0.1,0.4-0.1,0.6c0,1.2,0.6,2.6,2.5,2.6c1.3,0,2.4-1.1,2.5-2.4
		c0,0,0-0.1,0-0.1V3.1h2.9c0.5,3.1,2,3.8,4.1,4.1v2.9c0,0-2.4-0.2-4-1.3v5.8c0,2.4-1.8,5.6-5.4,5.6s-5.4-3-5.4-5.6
		c0.1-2.9,2.6-5.3,5.5-5.2C9.9,9.4,10.1,9.5,10.3,9.5z" />
		<path fill="%#EE1D52%" d="M11.1,10.2v2.9c-1.3-0.4-2.7,0.3-3.1,1.7c-0.1,0.2-0.1,0.4-0.1,0.6c0,1.2,0.6,2.6,2.5,2.6
		c1.3,0,2.4-1.1,2.5-2.4c0,0,0-0.1,0-0.1V3.8h2.9c0.5,3.1,2,3.8,4.1,4.1v2.9c0,0-2.4-0.2-4-1.3v5.8c0,2.4-1.8,5.6-5.4,5.6
		S5,17.8,5,15.3c0.1-2.9,2.5-5.3,5.5-5.2C10.7,10.1,10.9,10.1,11.1,10.2z" />
		<path fill="%#FFFFFF%" d="M19,7.8c-0.8-0.2-1.6-0.6-2.1-1.2c-0.8-0.5-1.4-1.3-1.8-2.7h-2.2v11.6c0,1.3-1,2.5-2.4,2.5c0,0-0.1,0-0.1,0
		c-0.8,0-1.5-0.3-2-0.9c-0.9-0.5-1.4-1.4-1.3-2.4c0.1-1.4,1.3-2.4,2.6-2.3c0.2,0,0.4,0,0.6,0.1v-2.3c-2.9,0-5.2,2.3-5.3,5.2
		c0,1.5,0.6,2.9,1.6,4c0.9,0.6,1.9,0.9,3,0.9c3.6,0,5.4-3.1,5.4-5.6V8.8c1.6,1.2,4,1.3,4,1.3L19,7.8z" />
	</g>
</svg>
