<svg version="1.1" id="Layer_1" xmlns="http://www.w3.org/2000/svg" x="0" y="0" viewBox="0 0 24 24" xml:space="preserve" enable-background="new 0 0 24 24" width="24" height="24">
    <title>24 hour</title>
    <g class="nc-icon-wrapper" fill="#232323">
        <path class="st0" d="M7.87 9.35l2.68 2.62 4.56-4.56" fill="none" stroke="#232323" stroke-width="1.5" stroke-linecap="round" stroke-linejoin="round" stroke-miterlimit="10" />
        <path class="st0" d="M10.18 20.56a9.643 9.643 0 0 1-6.42-2.82C0 13.98 0 7.87 3.77 4.1s9.87-3.77 13.64 0a9.638 9.638 0 0 1 2.82 6.54" fill="none" stroke="#232323" stroke-width="1.5" stroke-linecap="round" stroke-linejoin="round" stroke-miterlimit="10" />
        <path class="st2" d="M21.93 7.84l-1.77 3.7-2.73-3.06z" stroke="#232323" stroke-width="2" stroke-linecap="round" stroke-linejoin="round" stroke-miterlimit="10" />
        <path class="st0" d="M12.6 17.33a1.799 1.799 0 0 1 2.85-1.46c.62.47.76 1.35.33 2l-3.7 4.36c-.11.13-.09.32.03.42.05.05.12.07.19.07h4.2" fill="none" stroke="#232323" stroke-width="1.5" stroke-linecap="round" stroke-linejoin="round" stroke-miterlimit="10" />
        <path class="st0" d="M22.28 20.52h-5.3l4.12-5.02v7.22" fill="none" stroke="#232323" stroke-width="1.5" stroke-linecap="round" stroke-linejoin="round" stroke-miterlimit="10" />
    </g>
</svg>