<svg xmlns="http://www.w3.org/2000/svg" viewBox="0 0 24 24" width="24" height="24"><title>valet parking</title><g class="nc-icon-wrapper" transform="translate(0.5, 0.5)" fill="#232323"><path d="M13.476,15H19c2.817,0,3,2,3,2L10.235,21.525a3,3,0,0,1-2.419-.117L1,18V11H2c1.105,0,3.906.438,5,2h3a4,4,0,0,1,4,4H7" fill="none" stroke="#232323" stroke-miterlimit="10" stroke-width="1.5" data-cap="butt" stroke-linecap="round"/><path d="M11.65,4a3.5,3.5,0,1,0,0,3H14l1.5,1L17,7h2l1-3Z" fill="none" stroke="#232323" stroke-linecap="round" stroke-miterlimit="10" stroke-width="1.5" data-color="color-2" stroke-linejoin="round"/><circle cx="8.5" cy="5.5" r="1" fill="#232323" data-cap="butt" data-color="color-2" data-stroke="none" stroke-linecap="round"/></g></svg>