<svg version="1.1" id="Layer_1" xmlns="http://www.w3.org/2000/svg" x="0" y="0" viewBox="0 0 24 24" xml:space="preserve" enable-background="new 0 0 24 24" width="24" height="24"><title>vending machine</title><g class="nc-icon-wrapper" fill="#232323"><path class="st1" d="M7.14 15.67c0 .12.1.21.21.21h7.33c.12 0 .21-.1.21-.21V4.31c0-.12-.1-.21-.21-.21H7.35c-.12 0-.21.1-.21.21v11.36z" fill="none" stroke="#232323" stroke-width="1.5" stroke-miterlimit="10"/><path d="M18.14 3.73c0-.12-.1-.21-.21-.21h-.87c-.12 0-.21.1-.21.21v.87c0 .12.1.21.21.21h.87c.12 0 .21-.1.21-.21v-.87z"/><path d="M18.14 6.31c0-.12-.1-.21-.21-.21h-.87c-.12 0-.21.1-.21.21v.87c0 .12.1.21.21.21h.87c.12 0 .21-.1.21-.21v-.87z"/><path d="M18.14 8.9c0-.12-.1-.21-.21-.21h-.87c-.12 0-.21.1-.21.21v.87c0 .12.1.21.21.21h.87c.12 0 .21-.1.21-.21V8.9z"/><path d="M18.14 15.45c0-.12-.1-.21-.21-.21h-.87c-.12 0-.21.1-.21.21v.87c0 .12.1.21.21.21h.87c.12 0 .21-.1.21-.21v-.87z"/><path class="st1" d="M3.91 22.43c0 .31.26.57.57.57h15.04c.31 0 .57-.26.57-.57V1.57c0-.31-.26-.57-.57-.57H4.48a.57.57 0 0 0-.57.57v20.86z" fill="none" stroke="#232323" stroke-width="1.5" stroke-miterlimit="10"/><path class="st1" d="M3.91 18.47h16.18" fill="none" stroke="#232323" stroke-width="1.5" stroke-miterlimit="10"/><path class="st1" d="M10.38 23v-4.53" fill="none" stroke="#232323" stroke-width="1.5" stroke-miterlimit="10"/><path class="st1" d="M14.26 23v-4.53" fill="none" stroke="#232323" stroke-width="1.5" stroke-miterlimit="10"/></g></svg>