<?xml version="1.0" encoding="utf-8"?>
<svg version="1.1" id="Layer_1" xmlns="http://www.w3.org/2000/svg" xmlns:xlink="http://www.w3.org/1999/xlink" x="0px" y="0px" viewBox="0 0 24 24" style="enable-background:new 0 0 24 24;" xml:space="preserve">
	<g>
		<path fill="none" stroke="#232323" stroke-width="1.5" stroke-miterlimit="10" d="M11.3,3.8c0.7,0,1.3-0.6,1.3-1.3S12,1.2,11.3,1.2H6.7c-0.7,0-1.3,0.6-1.3,1.3s0.6,1.3,1.3,1.3H11.3z" />
		<path fill="none" stroke="#232323" stroke-width="1.5" stroke-miterlimit="10" d="M13,16.7V9c0-0.4,0.3-0.7,0.7-0.7h1.1c1.6,0,2.9-1.3,2.9-2.9c0-1.6-1.3-2.9-2.9-2.9h-2.2" />
		<path fill="none" stroke="#232323" stroke-width="1.5" stroke-miterlimit="10" d="M17.2,19.4v-2c0-0.4-0.3-0.7-0.7-0.7H9.4c-0.4,0-0.7,0.3-0.7,0.7v2" />
		<path fill="none" stroke="#232323" stroke-width="1.5" stroke-miterlimit="10" d="M7.4,20.7c-0.1,0.1-0.1,0.2-0.1,0.3v1.3c0,0.3,0.2,0.5,0.5,0.5h2c0.3,0,0.5-0.2,0.5-0.5V21
		c0-0.1-0.1-0.2-0.1-0.3l-1.3-1.3L7.4,20.7z" />
		<path fill="none" stroke="#232323" stroke-width="1.5" stroke-miterlimit="10" d="M15.9,20.7c-0.1,0.1-0.1,0.2-0.1,0.3v1.3c0,0.3,0.2,0.5,0.5,0.5h2c0.3,0,0.5-0.2,0.5-0.5V21
		c0-0.1-0.1-0.2-0.1-0.3l-1.3-1.3L15.9,20.7z" />
	</g>
</svg>
