<svg xmlns="http://www.w3.org/2000/svg" viewBox="0 0 24 24" width="24" height="24"><title>wash hands</title><g class="nc-icon-wrapper" stroke-linecap="round" stroke-linejoin="round" stroke-width="1.5" transform="translate(0.5 0.5)" fill="#232323" stroke="#232323"><path d="M17,16h1.838a3,3,0,0,1,2.846,2.051L22,19,10.532,22.529a4,4,0,0,1-2.965-.246L1,19V12H2c1.105,0,3.906.438,5,2h3a4,4,0,0,1,4,4H8" fill="none" stroke="#232323" stroke-miterlimit="10"/><path d="M8,9C8,7.9,10,5,10,5S12,7.9,12,9A2,2,0,0,1,8,9Z" fill="none" stroke-miterlimit="10" data-color="color-2"/><line x1="19" y1="5" x2="19" y2="1" fill="none" stroke-miterlimit="10" data-cap="butt" data-color="color-2"/><path d="M10,1H23" fill="none" stroke-miterlimit="10" data-color="color-2"/><path d="M15,12V7a2,2,0,0,1,2-2h4a2,2,0,0,1,2,2v6" fill="none" stroke-miterlimit="10" data-color="color-2"/></g></svg>