<svg xmlns="http://www.w3.org/2000/svg" viewBox="0 0 24 24" width="24" height="24"><title>water bottle</title><g class="nc-icon-wrapper" transform="translate(0.5, 0.5)" fill="#232323"><path d="M18.074,23H11.926a1,1,0,0,1-1-.923L10,10H20l-.929,12.077A1,1,0,0,1,18.074,23Z" fill="none" stroke="#232323" stroke-linecap="round" stroke-miterlimit="10" stroke-width="1.5" data-color="color-2" stroke-linejoin="round"/> <path d="M10.859,7A13.261,13.261,0,0,1,10,4V1H6V4c0,1.329-1.843,4.53-1.843,7.926s.469,4.577.469,6.2S4,20.6,4,21.523A1.419,1.419,0,0,0,5.33,23H8" fill="none" stroke="#232323" stroke-miterlimit="10" stroke-width="1.5" data-cap="butt" stroke-linecap="round"/></g></svg>