<svg xmlns="http://www.w3.org/2000/svg" viewBox="0 0 24 24" width="24" height="24"><title>wheelchair user</title><g class="nc-icon-wrapper" transform="translate(0.5, 0.5)" fill="#232323"><circle cx="11" cy="3" r="2" fill="none" stroke="#232323" stroke-linecap="round" stroke-miterlimit="10" stroke-width="1.5" stroke-linejoin="round"/><circle data-cap="butt" data-color="color-2" cx="20" cy="22" r="1" fill="none" stroke="#232323" stroke-miterlimit="10" stroke-width="1.5" stroke-linecap="round"/><path data-color="color-2" d="M7.763,13.551A4.991,4.991,0,1,0,15,18" fill="none" stroke="#232323" stroke-linecap="round" stroke-miterlimit="10" stroke-width="1.5" stroke-linejoin="round"/><path data-cap="butt" d="M20,18V16a1,1,0,0,0-1-1H12.735a2,2,0,0,1-1.98-1.717L10,8" fill="none" stroke="#232323" stroke-miterlimit="10" stroke-width="1.5" stroke-linecap="round"/><path d="M14.571,12l-.448-3.141A1,1,0,0,0,13.133,8H10.1l-.2.019L5.48,8.9a1,1,0,0,0-.7.533L3,13" fill="none" stroke="#232323" stroke-linecap="round" stroke-miterlimit="10" stroke-width="1.5" stroke-linejoin="round"/></g></svg>